HIERARCHY
ROOT root
{
	OFFSET 0.000000 0.000000 0.000000
	CHANNELS 6 Xposition Yposition Zposition Zrotation Yrotation Xrotation
	JOINT lhip
	{
		OFFSET 0.058581 -0.082280 -0.017664
		CHANNELS 3 Zrotation Yrotation Xrotation
		JOINT lknee
		{
			OFFSET 0.043451 -0.386469 0.008037
			CHANNELS 3 Zrotation Yrotation Xrotation
			JOINT lankle
			{
				OFFSET -0.014790 -0.426874 -0.037428
				CHANNELS 3 Zrotation Yrotation Xrotation
				JOINT ltoe
				{
					OFFSET 0.041054 -0.060286 0.122042
					CHANNELS 3 Zrotation Yrotation Xrotation
					End Site
					{
						OFFSET 0.000000 0.000000 0.000000
					}
				}
			}
		}
	}
	JOINT rhip
	{
		OFFSET -0.060310 -0.090513 -0.013543
		CHANNELS 3 Zrotation Yrotation Xrotation
		JOINT rknee
		{
			OFFSET -0.043257 -0.383688 -0.004843
			CHANNELS 3 Zrotation Yrotation Xrotation
			JOINT rankle
			{
				OFFSET 0.019056 -0.420046 -0.034562
				CHANNELS 3 Zrotation Yrotation Xrotation
				JOINT rtoe
				{
					OFFSET -0.034840 -0.062106 0.130323
					CHANNELS 3 Zrotation Yrotation Xrotation
					End Site
					{
						OFFSET 0.000000 0.000000 0.000000
					}
				}
			}
		}
	}
	JOINT lowerback
	{
		OFFSET 0.004439 0.124404 -0.038385
		CHANNELS 3 Zrotation Yrotation Xrotation
		JOINT upperback
		{
			OFFSET 0.004488 0.137956 0.026820
			CHANNELS 3 Zrotation Yrotation Xrotation
			JOINT chest
			{
				OFFSET -0.002265 0.056032 0.002855
				CHANNELS 3 Zrotation Yrotation Xrotation
				JOINT lowerneck
				{
					OFFSET -0.013390 0.211636 -0.033468
					CHANNELS 3 Zrotation Yrotation Xrotation
					JOINT upperneck
					{
						OFFSET 0.010113 0.088937 0.050410
						CHANNELS 3 Zrotation Yrotation Xrotation
						End Site
						{
							OFFSET 0.000000 0.000000 0.000000
						}
					}
				}
				JOINT lclavicle
				{
					OFFSET 0.071702 0.114000 -0.018898
					CHANNELS 3 Zrotation Yrotation Xrotation
					JOINT lshoulder
					{
						OFFSET 0.122921 0.045205 -0.019046
						CHANNELS 3 Zrotation Yrotation Xrotation
						JOINT lelbow
						{
							OFFSET 0.255332 -0.015649 -0.022946
							CHANNELS 3 Zrotation Yrotation Xrotation
							JOINT lwrist
							{
								OFFSET 0.265709 0.012698 -0.007375
								CHANNELS 3 Zrotation Yrotation Xrotation
								End Site
								{
									OFFSET 0.000000 0.000000 0.000000
								}
							}
						}
					}
				}
				JOINT rclavicle
				{
					OFFSET -0.082954 0.112472 -0.023707
					CHANNELS 3 Zrotation Yrotation Xrotation
					JOINT rshoulder
					{
						OFFSET -0.113228 0.046853 -0.008472
						CHANNELS 3 Zrotation Yrotation Xrotation
						JOINT relbow
						{
							OFFSET -0.260127 -0.014369 -0.031269
							CHANNELS 3 Zrotation Yrotation Xrotation
							JOINT rwrist
							{
								OFFSET -0.269108 0.006794 -0.006027
								CHANNELS 3 Zrotation Yrotation Xrotation
								End Site
								{
									OFFSET 0.000000 0.000000 0.000000
								}
							}
						}
					}
				}
			}
		}
	}
}
MOTION
Frames: 7
Frame Time: 0.033333
0.004168 -0.080059 0.969633 -178.445469 0.165391 92.235577 11.750543 4.895684 -9.649631 -6.754484 -0.947067 10.885856 -1.217834 4.049262 -6.981450 0.000000 -0.000000 0.000000 -12.970301 -6.861874 -13.846772 0.881366 -4.811577 14.862372 7.260632 -2.102206 -2.467453 0.000000 -0.000000 0.000000 -0.335676 2.983915 15.104187 1.937205 -4.520211 8.702751 1.991975 2.122645 -4.667713 -0.918569 7.258025 9.830110 5.633268 0.716385 22.418683 -23.008292 -28.797736 7.548071 -76.606178 -27.424689 25.707974 3.579763 -10.262588 4.143987 16.889144 8.788622 -29.030216 28.522889 26.775868 13.576104 67.610921 30.872670 14.832025 -14.337183 7.420743 -17.871012 8.289674 3.523450 -29.987933 
0.003842 -0.080438 0.969116 -178.373567 0.175178 92.188251 11.763000 4.818571 -9.668800 -6.764326 -0.745806 10.946388 -0.767221 3.852789 -7.120385 0.000000 -0.000000 0.000000 -12.923632 -6.443217 -13.633296 0.740947 -4.079242 14.763013 6.686800 -1.829194 -3.478913 0.000000 -0.000000 0.000000 -0.359396 3.008619 15.111781 2.011935 -4.531571 8.482072 2.043313 2.197258 -4.343712 -0.817313 7.211176 9.339801 5.298655 0.542260 23.042040 -22.708747 -28.817782 7.720170 -76.553157 -27.851941 25.300464 3.372326 -10.249971 3.338866 17.737729 8.717988 -28.237013 28.515807 26.695338 13.843967 67.616256 31.187943 14.631780 -14.228131 7.593180 -18.948405 7.447407 3.844479 -32.047953 
0.003163 -0.080536 0.969169 -178.252945 0.180344 92.135794 11.693577 4.803973 -9.630759 -6.733200 -0.821868 10.945750 -0.867357 3.771664 -7.118099 0.000000 -0.000000 0.000000 -12.988291 -6.656528 -13.674394 0.838658 -4.497979 14.882408 6.529825 -1.730879 -3.439221 0.000000 -0.000000 0.000000 -0.224487 3.059912 15.194018 2.046619 -4.521691 8.446921 2.022977 2.224060 -4.363376 -0.838714 7.323088 9.506341 5.330458 0.518385 22.860750 -22.745236 -28.762234 7.779739 -76.286651 -27.763778 25.174397 3.210013 -10.692897 3.457139 17.142614 8.782433 -28.260226 28.578276 26.621990 13.867188 67.681701 31.187882 14.331815 -14.471700 7.599500 -19.978779 7.993438 4.041000 -32.782071 
0.002505 -0.080743 0.969143 -178.071456 0.136454 92.099119 11.571010 4.819999 -9.620290 -6.746092 -1.011916 10.945662 -0.739194 3.771021 -7.180934 0.000000 -0.000000 0.000000 -13.037393 -6.463069 -13.513373 0.715487 -3.760491 14.823166 6.494434 -1.612421 -3.916358 0.000000 -0.000000 0.000000 -0.250435 3.157049 15.168688 2.200271 -4.413938 8.443676 2.027412 2.238561 -4.237256 -0.667391 7.112968 9.423936 5.092256 0.190898 22.739029 -22.662159 -28.507712 7.584477 -76.040619 -27.806964 25.258323 2.691146 -11.130128 4.123075 17.784869 9.263617 -27.870463 28.467351 26.379798 13.665549 67.861177 31.193525 14.361351 -14.415958 7.675218 -21.200930 7.290913 3.878216 -34.698402 
0.002009 -0.080599 0.968977 -177.951093 0.156013 92.079910 11.526071 4.773726 -9.599970 -6.688926 -1.087907 10.904615 -0.729516 3.722146 -7.205430 0.000000 -0.000000 0.000000 -13.032687 -6.687121 -13.572279 0.729660 -4.220472 14.964740 6.476097 -1.683088 -3.779849 0.000000 -0.000000 0.000000 -0.160100 3.217398 15.180903 2.248603 -4.379768 8.399239 2.034667 2.281305 -4.209941 -0.674346 6.979277 9.482737 5.178893 0.062712 22.777932 -22.694487 -28.625712 7.656625 -75.929432 -27.840732 25.247299 2.714247 -11.254388 4.567881 17.104974 8.979985 -27.903356 28.615098 26.457568 13.848401 67.731787 31.135151 14.036753 -14.699092 7.593224 -21.524971 8.174399 4.374191 -34.909566 
0.001233 -0.080828 0.968785 -177.771705 0.145030 92.110702 11.481395 4.731246 -9.721650 -6.747869 -1.123504 11.007376 -0.663327 3.685983 -7.254718 0.000000 -0.000000 0.000000 -13.038139 -6.717200 -13.583847 0.619965 -4.290304 14.976069 6.440339 -1.757048 -3.802925 0.000000 -0.000000 0.000000 -0.131744 3.275824 15.217988 2.306008 -4.383429 8.283506 2.109975 2.239879 -4.166276 -0.632407 6.900558 9.358457 5.158544 -0.069206 23.055603 -22.498453 -28.567353 7.741414 -76.103487 -27.956755 25.267145 2.996711 -11.505624 5.032357 16.965993 9.088580 -27.474012 28.525196 26.433090 13.820562 67.838934 31.089037 13.992018 -14.795417 7.614305 -20.940565 8.390758 4.675612 -34.822012 
0.001180 -0.080762 0.968653 -177.782439 0.138412 92.077553 11.518026 4.820931 -9.650309 -6.840984 -1.188118 10.959321 -0.690749 3.659246 -7.205267 0.000000 -0.000000 0.000000 -12.976123 -6.626230 -13.538098 0.509429 -3.982730 14.974505 6.350487 -1.784914 -4.024540 0.000000 -0.000000 0.000000 -0.120790 3.346074 15.111099 2.375031 -4.207518 8.316528 2.010581 2.348998 -4.073808 -0.656261 6.844977 9.506620 5.217213 -0.347326 23.021197 -22.489575 -28.805233 7.893302 -75.895869 -28.188367 25.230003 2.965921 -11.260798 5.756594 16.692216 9.032237 -27.178170 28.702393 26.616461 14.164117 67.820974 31.059020 13.949974 -15.118435 7.803497 -20.825338 7.858790 4.343853 -34.253522 
